<svg xmlns="http://www.w3.org/2000/svg" viewBox="0 0 32 32" fill="#ffffff"><path d="M16.004 0h-.008C7.174 0 .004 7.172.004 16c0 3.504 1.13 6.75 3.05 9.383L1.05 31.5l6.32-2.02A15.93 15.93 0 0 0 16.004 32C24.834 32 32 24.828 32 16S24.834 0 16.004 0zm9.31 22.594c-.387 1.09-1.92 1.996-3.14 2.258-.836.176-1.926.316-5.598-1.203-4.695-1.945-7.715-6.715-7.95-7.027-.226-.313-1.89-2.516-1.89-4.797s1.16-3.398 1.57-3.86c.34-.382.89-.558 1.418-.558.172 0 .328.008.468.016.41.016.617.04.887.687.34.812 1.16 2.812 1.258 3.018.1.207.168.45.034.726-.125.27-.234.418-.43.65-.207.231-.402.418-.598.652-.18.207-.379.43-.156.812.226.383 1.004 1.656 2.156 2.68 1.484 1.32 2.71 1.73 3.14 1.91.32.133.703.102.937-.149.297-.32.664-.851 1.039-1.375.266-.375.601-.422.937-.297.34.117 2.156 1.016 2.527 1.199.371.184.617.273.71.426.094.156.094.898-.293 1.989z"/></svg>
